<!-- src/assets/icons/feather-slim.svg -->
<svg xmlns="http://www.w3.org/2000/svg" style="display:none">
  <!-- כל האייקונים 24x24, קו דק, עוקבים את צבע הטקסט -->
  <symbol id="edit" viewBox="0 0 24 24">
    <g fill="none" stroke="currentColor" stroke-width="1.75" stroke-linecap="round" stroke-linejoin="round">
      <path d="M3 17v4h4l11-11-4-4L3 17z"/>
      <path d="M14 6l4 4"/>
    </g>
  </symbol>

  <symbol id="save" viewBox="0 0 24 24">
    <g fill="none" stroke="currentColor" stroke-width="1.75" stroke-linecap="round" stroke-linejoin="round">
      <path d="M5 4h11l4 4v12H5z"/>
      <path d="M9 4v6h6V4"/>
      <path d="M9 18h6"/>
    </g>
  </symbol>

  <symbol id="trash" viewBox="0 0 24 24">
    <g fill="none" stroke="currentColor" stroke-width="1.75" stroke-linecap="round" stroke-linejoin="round">
      <path d="M4 7h16"/>
      <path d="M6 7v12a2 2 0 0 0 2 2h8a2 2 0 0 0 2-2V7"/>
      <path d="M9 7V4h6v3"/>
      <path d="M10 12v6M14 12v6"/>
    </g>
  </symbol>

  <symbol id="calendar" viewBox="0 0 24 24">
    <g fill="none" stroke="currentColor" stroke-width="1.75" stroke-linecap="round" stroke-linejoin="round">
      <rect x="3" y="5" width="18" height="16" rx="2"/>
      <path d="M16 3v4M8 3v4M3 9h18"/>
    </g>
  </symbol>

  <symbol id="book-open" viewBox="0 0 24 24">
    <g fill="none" stroke="currentColor" stroke-width="1.75" stroke-linecap="round" stroke-linejoin="round">
      <path d="M12 19a3 3 0 0 0-3-3H3V5h6a3 3 0 0 1 3 3v11z"/>
      <path d="M12 19a3 3 0 0 1 3-3h6V5h-6a3 3 0 0 0-3 3v11z"/>
    </g>
  </symbol>

  <symbol id="user" viewBox="0 0 24 24">
    <g fill="none" stroke="currentColor" stroke-width="1.75" stroke-linecap="round" stroke-linejoin="round">
      <circle cx="12" cy="8" r="4"/>
      <path d="M4 20a8 8 0 0 1 16 0"/>
    </g>
  </symbol>

  <symbol id="plus" viewBox="0 0 24 24">
    <g fill="none" stroke="currentColor" stroke-width="1.75" stroke-linecap="round" stroke-linejoin="round">
      <path d="M12 5v14M5 12h14"/>
    </g>
  </symbol>

  <symbol id="x" viewBox="0 0 24 24">
    <g fill="none" stroke="currentColor" stroke-width="1.75" stroke-linecap="round" stroke-linejoin="round">
      <path d="M6 6l12 12M18 6l-12 12"/>
    </g>
  </symbol>
</svg>
